<mxfile host="app.diagrams.net" modified="2020-09-10T19:59:00.631Z" agent="Mozilla/5.0 (Windows NT 10.0; Win64; x64) AppleWebKit/537.36 (KHTML, like Gecko) Chrome/84.0.4147.135 Safari/537.36" etag="H-8YQTdV7iJL3oSF_dVq" version="12.8.8" type="github">
  <diagram id="TNxxzG12ijnpYzirDqoN" name="Page-1">
    <mxGraphModel dx="1038" dy="580" grid="1" gridSize="10" guides="1" tooltips="1" connect="1" arrows="1" fold="1" page="1" pageScale="1" pageWidth="850" pageHeight="1100" math="0" shadow="0">
      <root>
        <mxCell id="0" />
        <mxCell id="1" parent="0" />
        <mxCell id="OLvI24V4rsuPiJX6EQX--1" value="&lt;font style=&quot;font-size: 14px&quot;&gt;Browser-based &lt;br&gt;User Interface&lt;/font&gt;" style="rounded=1;whiteSpace=wrap;html=1;fillColor=#e1d5e7;strokeColor=#9673a6;" parent="1" vertex="1">
          <mxGeometry x="160" y="160" width="170" height="50" as="geometry" />
        </mxCell>
        <mxCell id="OLvI24V4rsuPiJX6EQX--3" value="" style="endArrow=classic;startArrow=classic;html=1;" parent="1" edge="1">
          <mxGeometry width="50" height="50" relative="1" as="geometry">
            <mxPoint x="330" y="190" as="sourcePoint" />
            <mxPoint x="420" y="190" as="targetPoint" />
          </mxGeometry>
        </mxCell>
        <mxCell id="OLvI24V4rsuPiJX6EQX--4" value="&lt;font style=&quot;font-size: 14px&quot;&gt;HTTP&lt;/font&gt;" style="text;html=1;align=center;verticalAlign=middle;resizable=0;points=[];autosize=1;" parent="1" vertex="1">
          <mxGeometry x="350" y="160" width="50" height="20" as="geometry" />
        </mxCell>
        <mxCell id="OLvI24V4rsuPiJX6EQX--5" value="&lt;font style=&quot;font-size: 14px&quot;&gt;Wikipedia Server&lt;/font&gt;" style="rounded=1;whiteSpace=wrap;html=1;fillColor=#f8cecc;strokeColor=#b85450;" parent="1" vertex="1">
          <mxGeometry x="420" y="160" width="140" height="50" as="geometry" />
        </mxCell>
        <mxCell id="OLvI24V4rsuPiJX6EQX--7" value="&lt;font style=&quot;font-size: 14px&quot;&gt;Actions&lt;/font&gt;" style="text;html=1;align=center;verticalAlign=middle;resizable=0;points=[];autosize=1;" parent="1" vertex="1">
          <mxGeometry x="160" y="215" width="60" height="20" as="geometry" />
        </mxCell>
        <mxCell id="OLvI24V4rsuPiJX6EQX--8" value="" style="endArrow=classic;html=1;" parent="1" target="OLvI24V4rsuPiJX6EQX--1" edge="1">
          <mxGeometry width="50" height="50" relative="1" as="geometry">
            <mxPoint x="246" y="241" as="sourcePoint" />
            <mxPoint x="280" y="220" as="targetPoint" />
          </mxGeometry>
        </mxCell>
        <mxCell id="OLvI24V4rsuPiJX6EQX--9" value="&lt;font style=&quot;font-size: 14px&quot;&gt;Data&lt;/font&gt;" style="text;html=1;align=center;verticalAlign=middle;resizable=0;points=[];autosize=1;" parent="1" vertex="1">
          <mxGeometry x="250" y="215" width="50" height="20" as="geometry" />
        </mxCell>
        <mxCell id="OLvI24V4rsuPiJX6EQX--10" value="" style="rounded=0;whiteSpace=wrap;html=1;fillColor=#fff2cc;strokeColor=#d6b656;" parent="1" vertex="1">
          <mxGeometry x="160" y="240" width="400" height="60" as="geometry" />
        </mxCell>
        <mxCell id="OLvI24V4rsuPiJX6EQX--11" value="&lt;font style=&quot;font-size: 14px&quot;&gt;Action-SPARQL&lt;br&gt;Translator&lt;/font&gt;" style="rounded=1;whiteSpace=wrap;html=1;fillColor=#dae8fc;strokeColor=#6c8ebf;" parent="1" vertex="1">
          <mxGeometry x="170" y="252.5" width="120" height="35" as="geometry" />
        </mxCell>
        <mxCell id="OLvI24V4rsuPiJX6EQX--12" value="&lt;font style=&quot;font-size: 14px&quot;&gt;Attribute&amp;nbsp;&lt;br&gt;Recommender&lt;/font&gt;" style="rounded=1;whiteSpace=wrap;html=1;fillColor=#dae8fc;strokeColor=#6c8ebf;" parent="1" vertex="1">
          <mxGeometry x="300" y="252.5" width="120" height="35" as="geometry" />
        </mxCell>
        <mxCell id="OLvI24V4rsuPiJX6EQX--13" value="&lt;font style=&quot;font-size: 14px&quot;&gt;Table&lt;br&gt;Recommender&lt;/font&gt;" style="rounded=1;whiteSpace=wrap;html=1;fillColor=#dae8fc;strokeColor=#6c8ebf;" parent="1" vertex="1">
          <mxGeometry x="430" y="252.5" width="120" height="35" as="geometry" />
        </mxCell>
        <mxCell id="OLvI24V4rsuPiJX6EQX--14" value="" style="endArrow=classic;startArrow=classic;html=1;entryX=0.5;entryY=1;entryDx=0;entryDy=0;exitX=0.5;exitY=0;exitDx=0;exitDy=0;" parent="1" source="OLvI24V4rsuPiJX6EQX--13" target="OLvI24V4rsuPiJX6EQX--5" edge="1">
          <mxGeometry width="50" height="50" relative="1" as="geometry">
            <mxPoint x="400" y="270" as="sourcePoint" />
            <mxPoint x="450" y="220" as="targetPoint" />
          </mxGeometry>
        </mxCell>
        <mxCell id="OLvI24V4rsuPiJX6EQX--16" value="&lt;font style=&quot;font-size: 14px&quot;&gt;HTTP&lt;/font&gt;" style="text;html=1;align=center;verticalAlign=middle;resizable=0;points=[];autosize=1;" parent="1" vertex="1">
          <mxGeometry x="490" y="220" width="50" height="20" as="geometry" />
        </mxCell>
        <mxCell id="OLvI24V4rsuPiJX6EQX--17" value="" style="endArrow=classic;startArrow=classic;html=1;entryX=0.947;entryY=1.031;entryDx=0;entryDy=0;entryPerimeter=0;exitX=0.475;exitY=0.025;exitDx=0;exitDy=0;exitPerimeter=0;" parent="1" target="OLvI24V4rsuPiJX6EQX--11" edge="1" source="OLvI24V4rsuPiJX6EQX--24">
          <mxGeometry width="50" height="50" relative="1" as="geometry">
            <mxPoint x="280" y="330" as="sourcePoint" />
            <mxPoint x="290" y="289" as="targetPoint" />
          </mxGeometry>
        </mxCell>
        <mxCell id="OLvI24V4rsuPiJX6EQX--19" value="" style="endArrow=classic;startArrow=classic;html=1;entryX=0;entryY=1;entryDx=0;entryDy=0;exitX=0.523;exitY=0.045;exitDx=0;exitDy=0;exitPerimeter=0;" parent="1" target="OLvI24V4rsuPiJX6EQX--13" edge="1" source="OLvI24V4rsuPiJX6EQX--24">
          <mxGeometry width="50" height="50" relative="1" as="geometry">
            <mxPoint x="440" y="330" as="sourcePoint" />
            <mxPoint x="450" y="220" as="targetPoint" />
            <Array as="points" />
          </mxGeometry>
        </mxCell>
        <mxCell id="OLvI24V4rsuPiJX6EQX--20" value="" style="endArrow=classic;startArrow=classic;html=1;entryX=0.5;entryY=1;entryDx=0;entryDy=0;" parent="1" target="OLvI24V4rsuPiJX6EQX--12" edge="1">
          <mxGeometry width="50" height="50" relative="1" as="geometry">
            <mxPoint x="360" y="330" as="sourcePoint" />
            <mxPoint x="450" y="220" as="targetPoint" />
          </mxGeometry>
        </mxCell>
        <mxCell id="OLvI24V4rsuPiJX6EQX--23" value="&lt;font style=&quot;font-size: 14px&quot;&gt;SPARQL Queries/Results&lt;/font&gt;" style="text;html=1;align=center;verticalAlign=middle;resizable=0;points=[];autosize=1;" parent="1" vertex="1">
          <mxGeometry x="160" y="310" width="170" height="20" as="geometry" />
        </mxCell>
        <mxCell id="OLvI24V4rsuPiJX6EQX--24" value="&lt;font style=&quot;font-size: 14px&quot;&gt;DBPedia Access Point&lt;/font&gt;" style="rounded=1;whiteSpace=wrap;html=1;fillColor=#d5e8d4;strokeColor=#82b366;" parent="1" vertex="1">
          <mxGeometry x="160" y="330" width="400" height="40" as="geometry" />
        </mxCell>
        <mxCell id="OLvI24V4rsuPiJX6EQX--25" style="edgeStyle=orthogonalEdgeStyle;rounded=0;orthogonalLoop=1;jettySize=auto;html=1;exitX=0.5;exitY=1;exitDx=0;exitDy=0;" parent="1" source="OLvI24V4rsuPiJX6EQX--24" target="OLvI24V4rsuPiJX6EQX--24" edge="1">
          <mxGeometry relative="1" as="geometry" />
        </mxCell>
        <mxCell id="V19jQGttuM2H-5uQIt9h-2" value="" style="endArrow=classic;html=1;exitX=0.365;exitY=1;exitDx=0;exitDy=0;exitPerimeter=0;" edge="1" parent="1" source="OLvI24V4rsuPiJX6EQX--1">
          <mxGeometry width="50" height="50" relative="1" as="geometry">
            <mxPoint x="400" y="320" as="sourcePoint" />
            <mxPoint x="222" y="240" as="targetPoint" />
          </mxGeometry>
        </mxCell>
      </root>
    </mxGraphModel>
  </diagram>
</mxfile>
